<svg xmlns="http://www.w3.org/2000/svg" data-name="Layer 1" viewBox="0 0 32 32"><path fill="#f0ff92" d="M28.824 15.43c-5.057 0-8.117-.002-9.903-.728.739-1.776 2.876-3.934 6.452-7.51l.027-.027a.6.6 0 1 0-.848-.848c-3.592 3.592-5.756 5.739-7.537 6.48-.725-1.787-.729-4.847-.729-9.904a.6.6 0 0 0-1.199 0c0 5.057-.003 8.117-.728 9.903-1.78-.74-3.945-2.887-7.537-6.479a.6.6 0 1 0-.848.848L6 7.192c3.576 3.576 5.714 5.734 6.453 7.51-1.786.726-4.846.729-9.903.729a.6.6 0 1 0 0 1.199c5.057 0 8.117.003 9.903.728-.74 1.781-2.887 3.945-6.479 7.537a.6.6 0 0 0 .848.848l.027-.026c3.576-3.576 5.734-5.714 7.51-6.453.725 1.786.728 4.846.728 9.903a.6.6 0 1 0 1.2 0c0-5.057.003-8.117.728-9.903 1.776.74 3.934 2.877 7.51 6.453l.027.026a.6.6 0 1 0 .848-.847c-3.592-3.593-5.739-5.757-6.48-7.538 1.787-.725 4.847-.728 9.904-.728a.6.6 0 1 0 0-1.2" class="fill-000000"/></svg>